<svg xmlns="http://www.w3.org/2000/svg" viewBox="0 0 512 512" role="img" aria-label="쓰담">
  <defs>
    <linearGradient id="bg" x1="0" y1="0" x2="1" y2="1">
      <stop offset="0" stop-color="#4C6FFF"/>
      <stop offset="0.55" stop-color="#7C5CD1"/>
      <stop offset="1" stop-color="#FF8A5B"/>
    </linearGradient>
  </defs>
  <rect width="512" height="512" rx="116" fill="url(#bg)"/>
  <!-- 글 카드(글) — 안전영역 안 -->
  <rect x="100" y="170" width="312" height="214" rx="44" fill="#fff"/>
  <rect x="142" y="232" width="150" height="22" rx="11" fill="#4C6FFF"/>
  <rect x="142" y="274" width="228" height="18" rx="9" fill="#7C5CD1" fill-opacity=".55"/>
  <rect x="142" y="312" width="150" height="18" rx="9" fill="#7C5CD1" fill-opacity=".32"/>
  <!-- 다독임(애정) = 코랄 하트, 카드 우상단에 살짝 얹힘 -->
  <path d="M372 268
           C360 254 326 232 326 198
           C326 174 344 162 362 170
           C369 173 372 180 372 180
           C372 180 375 173 382 170
           C400 162 418 174 418 198
           C418 232 384 254 372 268 Z" fill="#FF8A5B" stroke="#fff" stroke-width="8"/>
</svg>
